<svg aria-hidden="true" style="position: absolute; width: 0; height: 0; overflow: hidden;" version="1.1" xmlns="http://www.w3.org/2000/svg" xmlns:xlink="http://www.w3.org/1999/xlink">
<defs>
<symbol id="icon-button" viewBox="0 0 32 32">
<path fill="#8a53ff" style="fill: var(--color1, #8a53ff)" d="M32 16c0 8.837-7.163 16-16 16s-16-7.163-16-16c0-8.837 7.163-16 16-16s16 7.163 16 16z"></path>
<path fill="#fff" style="fill: var(--color2, #fff)" d="M21.701 14.601c1.185 0.684 1.185 2.395 0 3.079l-7.643 4.412c-1.185 0.684-2.667-0.171-2.667-1.54v-8.825c0-1.369 1.482-2.224 2.667-1.54l7.642 4.412z"></path>
</symbol>
<symbol id="icon-button-tr" viewBox="0 0 32 32">
<path fill="#8a53ff" style="fill: var(--color1, #8a53ff)" opacity="0.12" d="M31.281 16c0 8.598-6.97 15.568-15.568 15.568s-15.568-6.97-15.568-15.568c0-8.598 6.97-15.568 15.568-15.568s15.568 6.97 15.568 15.568z"></path>
<path fill="#8a53ff" style="fill: var(--color1, #8a53ff)" d="M21.198 14.639c1.153 0.666 1.153 2.33 0 2.996l-7.341 4.238c-1.153 0.666-2.595-0.166-2.595-1.498v-8.477c0-1.332 1.441-2.164 2.595-1.498l7.341 4.238z"></path>
</symbol>
<symbol id="icon-logo" viewBox="0 0 50 32">
<path fill="#3e3e3e" style="fill: var(--color1, #3e3e3e)" d="M0.815 5.543c0.060-0.010 0.12-0.020 0.19-0.040 0.28-0.070 0.63-0.14 1.050-0.21s0.84-0.1 1.28-0.090c0.090 0 0.17-0.040 0.23-0.13 0.050-0.090 0.070-0.19 0.050-0.3 1.31-0.28 2.63-0.51 3.98-0.7-0.14 0.21-0.28 0.4-0.39 0.56-0.16 0.22-0.32 0.44-0.47 0.66s-0.31 0.48-0.5 0.79c-0.2 0.32-0.44 0.76-0.73 1.32-0.28 0.57-0.58 1.21-0.88 1.92-0.31 0.72-0.51 1.45-0.62 2.19-0.1 0.75-0.040 1.27 0.2 1.57 0.23 0.23 0.53 0.31 0.89 0.24 0.19-0.060 0.3-0.16 0.32-0.32 0.010-0.15-0.070-0.26-0.26-0.32-0.060-0.010-0.11-0.020-0.15-0.020-0.060 0.010-0.1 0-0.14-0.010-0.040-0.020-0.070-0.060-0.1-0.12-0.040-0.11-0.060-0.25-0.070-0.4 0-0.15 0.010-0.29 0.020-0.41 0.17-1.1 0.57-2.27 1.2-3.51 0.62-1.24 1.28-2.33 1.96-3.29 0.020-0.020 0.040-0.050 0.060-0.080l0.26-0.36c0.11-0.14 0.21-0.27 0.32-0.38 0.1-0.12 0.19-0.18 0.26-0.19l1.12-0.14c0.74-0.090 1.43-0.17 2.080-0.22s1.44-0.070 2.37-0.050c0.070 0 0.13 0 0.2 0.010 0.060 0.010 0.13 0.020 0.19 0.020 0.15-0.010 0.26-0.050 0.34-0.14 0.070-0.090 0.1-0.18 0.080-0.28-0.020-0.11-0.1-0.18-0.24-0.23-0.3-0.080-0.77-0.11-1.41-0.080-0.64 0.020-1.3 0.060-2 0.13-0.69 0.060-1.26 0.12-1.71 0.17-0.14 0.020-0.25 0.030-0.34 0.040 0.010-0.24-0.060-0.38-0.22-0.42-0.15-0.040-0.3-0.020-0.45 0.070-0.15 0.1-0.25 0.2-0.33 0.3-0.050 0.060-0.1 0.11-0.15 0.15-0.060 0.050-0.12 0.070-0.2 0.080-0.48 0.070-1.24 0.18-2.28 0.36-1.040 0.17-2.070 0.37-3.080 0.6-1.020 0.22-1.73 0.45-2.14 0.68-0.17 0.13-0.23 0.26-0.18 0.41 0.050 0.14 0.18 0.2 0.39 0.17zM9.714 9.822c0.17-0.030 0.38-0.14 0.63-0.3 0.26-0.17 0.49-0.34 0.71-0.51 0.22-0.18 0.35-0.29 0.4-0.35-0.11 0.24-0.27 0.63-0.48 1.14-0.22 0.52-0.39 0.96-0.51 1.34-0.050 0.16-0.010 0.29 0.1 0.38 0.11 0.1 0.23 0.13 0.37 0.12 0.14-0.020 0.24-0.1 0.28-0.25 0.22-0.95 0.66-2.060 1.31-3.35s1.42-2.62 2.31-4c0.11-0.19 0.12-0.35 0.030-0.48s-0.21-0.2-0.37-0.21c-0.16-0.010-0.29 0.060-0.4 0.22-0.48 0.86-0.85 1.52-1.090 1.98-0.18 0.35-0.35 0.65-0.5 0.91s-0.33 0.53-0.53 0.81c-0.3 0.42-0.74 0.88-1.34 1.36-0.35 0.29-0.61 0.45-0.76 0.5-0.16 0.050-0.26 0.020-0.28-0.090s-0.010-0.25 0.050-0.43c0.050-0.19 0.12-0.36 0.19-0.53 0.080-0.18 0.14-0.3 0.18-0.38 0.030-0.060 0.010-0.13-0.040-0.2s-0.12-0.12-0.2-0.16c-0.080-0.040-0.16-0.040-0.22-0.010-0.090 0.050-0.2 0.13-0.31 0.23-0.32-0.31-0.67-0.3-1.050 0.040-1.050 0.88-1.64 1.59-1.77 2.14s0.020 0.77 0.44 0.65c0.16-0.070 0.37-0.21 0.63-0.43 0.27-0.22 0.54-0.46 0.81-0.7 0.26-0.25 0.48-0.44 0.65-0.58-0.090 0.45-0.050 0.76 0.11 0.94 0.17 0.18 0.39 0.25 0.65 0.2zM7.504 9.123l0.12-0.14c0.080-0.090 0.18-0.19 0.29-0.3 0.12-0.12 0.22-0.21 0.32-0.3 0.1-0.080 0.17-0.12 0.21-0.12-0.040 0.050-0.11 0.12-0.2 0.21-0.1 0.1-0.21 0.2-0.32 0.3-0.11 0.11-0.21 0.19-0.29 0.26s-0.13 0.1-0.13 0.090zM17.066 4.763c0.23-0.41 0.45-0.76 0.66-1.060 0.12-0.19 0.21-0.33 0.26-0.42 0.070-0.13 0.060-0.25 0-0.36-0.070-0.11-0.17-0.15-0.32-0.14-0.14 0.010-0.3 0.13-0.48 0.35-1.69 2.31-3.060 4.77-4.090 7.38l-0.030 0.070c-0.17 0.4-0.34 0.85-0.49 1.36-0.030 0.12 0.010 0.21 0.12 0.28 0.1 0.070 0.22 0.1 0.35 0.090 0.12 0 0.21-0.050 0.25-0.15 0.14-0.44 0.34-0.96 0.58-1.57 0.25-0.61 0.47-1.13 0.66-1.56 0.15 0.24 0.46 0.36 0.93 0.35s1.040-0.1 1.7-0.26c0.65-0.17 1.19-0.34 1.59-0.51 0.13-0.060 0.19-0.13 0.21-0.23 0.010-0.1-0.030-0.18-0.1-0.25-0.080-0.060-0.18-0.080-0.31-0.050-0.37 0.14-0.75 0.26-1.14 0.36s-0.74 0.18-1.060 0.23c-0.32 0.050-0.6 0.070-0.84 0.060s-0.29-0.090-0.15-0.23c0.32-0.27 0.72-0.48 1.19-0.64 0.14-0.060 0.2-0.16 0.2-0.29-0.010-0.13-0.060-0.24-0.17-0.33-0.1-0.090-0.23-0.12-0.38-0.070-0.18 0.070-0.37 0.18-0.58 0.33-0.21 0.14-0.36 0.25-0.46 0.33 0.010-0.1 0.12-0.34 0.33-0.71 0.2-0.38 0.42-0.76 0.65-1.15 0.23-0.38 0.39-0.64 0.47-0.78 0.050-0.070 0.090-0.12 0.12-0.14s0.060-0.040 0.090-0.040c0.030-0.010 0.070-0.030 0.11-0.060 0.030-0.030 0.080-0.090 0.13-0.19zM18.817 7.282c-0.18 0.22-0.4 0.56-0.67 1.010s-0.4 0.87-0.39 1.25c0.11 0.53 0.37 0.79 0.79 0.78s0.89-0.16 1.42-0.46c0.53-0.3 1.010-0.62 1.45-0.97s0.73-0.6 0.89-0.75c0.090-0.1 0.13-0.18 0.11-0.26s-0.060-0.13-0.14-0.16c-0.070-0.030-0.15-0.010-0.23 0.040-0.010 0.010-0.030 0.030-0.070 0.060-0.14 0.11-0.39 0.31-0.76 0.58s-0.77 0.53-1.21 0.78c-0.44 0.25-0.85 0.4-1.21 0.45-0.24 0.020-0.34-0.070-0.3-0.27 0.030-0.2 0.15-0.45 0.34-0.74 0.19-0.3 0.39-0.59 0.61-0.87 0.080-0.13 0.080-0.24 0-0.35-0.080-0.1-0.18-0.17-0.31-0.2-0.14-0.030-0.24-0.010-0.32 0.080zM19.407 6.673c-0.040 0.18-0.030 0.29 0.030 0.32 0.090 0.020 0.23-0.030 0.42-0.17 0.19-0.13 0.37-0.29 0.55-0.48 0.17-0.18 0.28-0.34 0.33-0.46 0.030-0.11-0.010-0.18-0.12-0.22-0.1-0.040-0.22-0.060-0.35-0.050-0.13 0-0.23 0.030-0.29 0.070-0.12 0.090-0.24 0.24-0.34 0.43-0.11 0.2-0.18 0.39-0.23 0.56zM22.131 7.232c-0.47 0.79-0.86 1.52-1.17 2.21-0.050 0.14-0.040 0.26 0.030 0.37 0.070 0.1 0.17 0.17 0.28 0.21 0.12 0.040 0.22 0.020 0.31-0.040 0.1-0.1 0.28-0.29 0.54-0.56l0.7-0.71c0.24-0.24 0.44-0.44 0.6-0.58 0.17-0.14 0.24-0.18 0.23-0.11-0.030 0.080-0.070 0.17-0.12 0.28-0.13 0.26-0.23 0.54-0.31 0.84s-0.030 0.51 0.17 0.64c0.33 0.14 0.78 0.050 1.34-0.24 0.56-0.3 1.060-0.62 1.52-0.98 0.11-0.090 0.16-0.18 0.16-0.28-0.010-0.1-0.050-0.17-0.13-0.22-0.080-0.040-0.18-0.030-0.29 0.050-0.010 0-0.020 0.010-0.020 0.010-0.11 0.080-0.29 0.21-0.56 0.39-0.26 0.18-0.53 0.34-0.81 0.48s-0.49 0.19-0.64 0.15c-0.040-0.020-0.030-0.12 0.050-0.28 0.070-0.16 0.16-0.34 0.27-0.55l0.22-0.42c0.060-0.13 0.1-0.23 0.12-0.31 0.020-0.1-0.010-0.21-0.080-0.31-0.070-0.11-0.15-0.19-0.26-0.25-0.1-0.060-0.2-0.080-0.29-0.050-0.11 0.050-0.29 0.18-0.53 0.38-0.24 0.19-0.48 0.4-0.71 0.61-0.24 0.21-0.4 0.36-0.5 0.46 0-0.040 0.030-0.1 0.080-0.19 0.060-0.080 0.13-0.18 0.21-0.3 0.070-0.090 0.14-0.2 0.21-0.3 0.060-0.1 0.050-0.2-0.020-0.31-0.080-0.1-0.18-0.17-0.3-0.2s-0.22 0.010-0.3 0.11zM24.426 15.412c0.41-0.5 0.81-1.050 1.19-1.65 0.34-0.52 0.6-0.89 0.8-1.090l0.56-0.54c1.23-1.24 2.75-2.57 4.56-4 0.12-0.1 0.18-0.22 0.17-0.36 0-0.13-0.040-0.24-0.12-0.32s-0.17-0.080-0.28 0c-1 0.81-1.86 1.55-2.57 2.22-0.51 0.46-0.89 0.79-1.16 1.010 0.090-0.14 0.26-0.45 0.5-0.94 0.24-0.48 0.44-0.98 0.61-1.5s0.19-0.9 0.070-1.13c-0.060-0.090-0.14-0.13-0.23-0.12-0.1 0.010-0.19 0.040-0.27 0.1l-0.18 0.12c-0.010 0-0.010 0.010-0.020 0.010-0.050-0.030-0.11-0.090-0.17-0.17-0.050-0.060-0.1-0.12-0.16-0.18-0.060-0.050-0.13-0.080-0.21-0.080-0.21 0.020-0.49 0.18-0.83 0.48-0.35 0.31-0.68 0.65-1 1.040-0.33 0.39-0.58 0.72-0.74 1-0.18 0.31-0.25 0.57-0.22 0.78 0.040 0.21 0.19 0.29 0.45 0.23 0.18-0.060 0.43-0.22 0.74-0.48s0.63-0.55 0.97-0.87c0.48-0.45 0.88-0.8 1.2-1.030-0.17 0.63-0.4 1.2-0.68 1.71-0.29 0.51-0.62 1.020-0.98 1.55-0.060 0.090-0.13 0.19-0.19 0.29-0.25 0.34-0.6 0.73-1.040 1.16-0.48 0.46-0.96 0.99-1.45 1.59-0.14 0.21-0.18 0.44-0.11 0.67 0.060 0.24 0.17 0.41 0.33 0.53s0.32 0.11 0.46-0.030z"></path>
<path fill="#8a53ff" style="fill: var(--color2, #8a53ff)" d="M10.060 21.032h-2.465v7.905h-3.4v-7.905h-2.465v-2.72h8.33v2.72zM10.995 20.438h1.7l0.935 0.952c0.669-0.612 1.507-1.014 2.516-1.207l0.204 3.213c-0.272 0.011-0.629 0.079-1.071 0.204-0.431 0.125-0.725 0.283-0.884 0.476v4.862h-3.4v-8.5zM21.399 20.183c2.72 0 4.080 0.935 4.080 2.805v5.95h-1.7l-0.969-0.969c-0.329 0.385-0.776 0.686-1.343 0.901s-1.105 0.323-1.615 0.323c-0.499 0-0.901-0.040-1.207-0.119s-0.606-0.215-0.901-0.408c-0.646-0.408-0.969-1.167-0.969-2.278 0-2.040 1.541-3.060 4.624-3.060h0.68v-0.612c-0.363-0.023-0.663-0.034-0.901-0.034-1.281 0-2.38 0.153-3.298 0.459l-0.408-2.431c1.133-0.351 2.442-0.527 3.927-0.527zM20.209 26.014v0.697h0.697c0.499 0 0.816-0.057 0.952-0.17 0.147-0.113 0.221-0.261 0.221-0.442v-0.799h-0.697c-0.408 0-0.708 0.045-0.901 0.136-0.181 0.079-0.272 0.272-0.272 0.578zM28.29 28.938l-2.125-8.5h3.4l0.935 5.525h0.17l0.935-5.525h3.4l-2.125 8.5h-4.59zM39.162 26.047v0.595c0.34 0.034 0.68 0.051 1.020 0.051 1.054 0 2.119-0.17 3.196-0.51l0.408 2.499c-1.269 0.34-2.527 0.51-3.774 0.51-1.587 0-2.737-0.368-3.451-1.105-0.703-0.748-1.054-1.881-1.054-3.4s0.351-2.646 1.054-3.383c0.714-0.748 1.859-1.122 3.434-1.122 1.587 0 2.68 0.215 3.281 0.646s0.901 1.235 0.901 2.414c0 0.997-0.363 1.717-1.088 2.159-0.714 0.431-2.023 0.646-3.927 0.646zM39.162 23.378v0.697h0.697c0.408 0 0.703-0.040 0.884-0.119 0.193-0.091 0.289-0.289 0.289-0.595v-0.697h-0.697c-0.408 0-0.708 0.045-0.901 0.136-0.181 0.079-0.272 0.272-0.272 0.578zM48.859 17.633v8.874c0.363 0.068 0.64 0.108 0.833 0.119l-0.153 2.499c-1.451 0-2.408-0.085-2.873-0.255-0.578-0.215-0.935-0.487-1.071-0.816-0.091-0.204-0.136-0.442-0.136-0.714v-9.452l3.4-0.255z"></path>
</symbol>
<symbol id="icon-search" viewBox="0 0 32 32">
<path style="stroke: var(--color3, #808080)" stroke-linejoin="round" stroke-linecap="round" stroke-miterlimit="4" stroke-width="1.8487" d="M25.924 13.382c0 5.7-4.622 10.32-10.32 10.32-5.7 0-10.32-4.62-10.32-10.32s4.62-10.32 10.32-10.32c5.699 0 10.32 4.62 10.32 10.32z"></path>
<path style="stroke: var(--color3, #808080)" stroke-linejoin="miter" stroke-linecap="round" stroke-miterlimit="4" stroke-width="3.6974" d="M23.578 21.277l6.7 6.062"></path>
</symbol>
<symbol id="icon-user" viewBox="0 0 32 32">
<path d="M16 3.333c-0.001 0-0.001 0-0.002 0-4.050 0-7.333 3.283-7.333 7.333 0 2.509 1.26 4.724 3.183 6.047l0.025 0.016c-4.52 1.692-7.71 5.908-7.866 10.888l-0 0.019c-0 0.009-0 0.019-0 0.030 0 0.553 0.448 1 1 1 0.542 0 0.983-0.431 1-0.969l0-0.002c0.17-5.39 4.58-9.695 9.995-9.695s9.825 4.305 9.995 9.679l0 0.016c0.004 0.549 0.45 0.992 1 0.992 0.552 0 1-0.448 1-1 0-0.018-0-0.036-0.001-0.054l0 0.002c-0.157-5-3.346-9.216-7.784-10.881l-0.083-0.027c1.947-1.338 3.208-3.553 3.208-6.063 0-4.050-3.283-7.333-7.333-7.333-0.001 0-0.002 0-0.002 0h0zM10.667 10.667c0-2.946 2.388-5.333 5.333-5.333s5.333 2.388 5.333 5.333v0c0 2.946-2.388 5.333-5.333 5.333s-5.333-2.388-5.333-5.333v0z"></path>
</symbol>
<symbol id="burger" viewBox="0 0 48 32">
<path d="M0 5.333v-5.333h48v5.333h-48zM0 18.667h48v-5.333h-48v5.333zM0 32h48v-5.333h-48v5.333z"></path>
</symbol>
<symbol id="inverted-commas" viewBox="0 0 44 32">
<path fill="#8a53ff" style="fill: var(--color1, #8a53ff)" d="M4.626 4.584c2.988-3.042 7.509-4.584 13.435-4.584h2.129v5.638l-1.712 0.322c-2.917 0.548-4.947 1.626-6.033 3.208-0.567 0.852-0.888 1.828-0.933 2.832h6.548c0.565 0 1.106 0.211 1.506 0.586s0.624 0.884 0.624 1.414v14c0 2.206-1.91 4-4.259 4h-12.777c-0.565 0-1.106-0.211-1.506-0.586s-0.624-0.884-0.624-1.414v-10l0.006-5.838c-0.019-0.222-0.424-5.482 3.595-9.578zM39.357 32h-12.777c-0.565 0-1.106-0.211-1.506-0.586s-0.624-0.884-0.624-1.414v-10l0.006-5.838c-0.019-0.222-0.424-5.482 3.595-9.578 2.988-3.042 7.509-4.584 13.435-4.584h2.13v5.638l-1.712 0.322c-2.918 0.548-4.947 1.626-6.033 3.208-0.567 0.852-0.888 1.828-0.933 2.832h6.548c0.565 0 1.106 0.211 1.506 0.586s0.624 0.884 0.624 1.414v14c0 2.206-1.91 4-4.259 4z"></path>
</symbol>
<symbol id="icon-close" viewBox="0 0 32 32">
<path d="M27.439 0h-22.878c-2.515 0-4.561 2.046-4.561 4.561v22.878c0 2.515 2.046 4.561 4.561 4.561h22.878c2.515 0 4.561-2.046 4.561-4.561v-22.878c0-2.515-2.046-4.561-4.561-4.561zM29.415 27.439c0 1.089-0.886 1.976-1.976 1.976h-22.878c-1.089 0-1.976-0.886-1.976-1.976v-22.878c0-1.089 0.886-1.976 1.976-1.976h22.878c1.089 0 1.976 0.886 1.976 1.976v22.878z"></path>
<path d="M21.817 19.988l-9.805-9.805c-0.505-0.505-1.323-0.505-1.828 0s-0.505 1.323 0 1.828l9.805 9.805c0.252 0.252 0.583 0.379 0.914 0.379s0.662-0.126 0.914-0.379c0.505-0.505 0.505-1.323-0-1.828z"></path>
<path d="M21.817 10.183c-0.505-0.505-1.323-0.505-1.828 0l-9.805 9.805c-0.505 0.505-0.505 1.323 0 1.828 0.252 0.252 0.583 0.379 0.914 0.379s0.662-0.126 0.914-0.379l9.805-9.805c0.505-0.505 0.505-1.323 0-1.828z"></path>
</symbol>
<symbol id="icon-play" viewBox="0 0 32 32">
<path fill="#8a53ff" style="fill: var(--color1, #8a53ff)" opacity="0.6" d="M31.745 16c0 8.805-7.073 15.944-15.799 15.944s-15.799-7.138-15.799-15.944c0-8.805 7.073-15.944 15.799-15.944s15.799 7.138 15.799 15.944z"></path>
<path fill="#fff" style="fill: var(--color2, #fff)" d="M22.107 15.358c0.6 0.349 0.6 1.216 0 1.565l-8.969 5.226c-0.604 0.352-1.362-0.084-1.362-0.783v-10.451c0-0.699 0.758-1.134 1.362-0.783l8.969 5.226z"></path>
</symbol>
</defs>
</svg>
